<svg width="338" height="198" viewBox="0 0 338 198" fill="none" xmlns="http://www.w3.org/2000/svg">
<path opacity="0.12" fill-rule="evenodd" clip-rule="evenodd" d="M336.185 198H0.185547V62.3861C1.60622 62.1172 4.25307 64.8593 7.22646 64.9307C9.45925 64.9842 11.7283 62.0476 14.6178 63.4035C16.2133 64.1523 17.8321 66.8599 19.9162 67.1687C21.6801 67.43 23.8672 65.3163 25.729 65.6221C28.1666 66.0225 28.8133 84.5177 30.7348 84.4609C32.0216 84.4229 34.4937 79.6426 35.016 80.1704C38.642 83.8343 41.0056 92.8459 41.1954 93.5841C48.4403 121.756 43.6283 78.1945 53.8552 100.519C54.454 101.826 57.1461 98.5154 57.9001 99.7289C61.959 106.261 59.9633 101.524 66.7339 104.635C71.3867 106.773 71.1628 105.344 75.1687 102.048C75.3571 101.893 79.8864 119.721 85.9291 117.099C88.4018 116.026 91.2183 115.958 93.4706 114.435C100.031 109.998 102.969 130.14 108.999 124.926C110.044 124.022 111.57 127.743 112.619 126.844C113.983 125.674 115.256 121.553 116.541 120.288L121.588 122.735C127.989 116.431 130.647 110.187 134.545 104.635C136.712 101.548 136.242 104.405 141.345 102.048C142.842 101.357 145.387 98.0393 147.302 97.1814C150.026 95.9616 151.283 102.201 153.878 100.698C156.779 99.0185 157.831 95.3019 159.908 93.5841C161.513 92.2563 164.213 93.0907 165.83 90.921C167.818 88.252 170.082 82.0029 172.706 80.1704C174.696 78.7816 177.448 83.043 179.135 82.9905C181.528 82.9158 182.681 79.0954 184.274 80.6605C187.954 84.2787 188.904 95.2245 194.311 92.5588C197.476 90.9987 198.036 85.7589 199.863 83.8343C201.695 81.9034 204.028 86.554 205.259 84.4609C206.851 81.7543 207.746 73.9084 209.961 70.4812C212.037 67.2679 215.361 68.4492 219.004 66.5099C219.742 66.117 220.095 62.0055 221.038 58.7009C221.805 56.01 223.502 56.7439 224.245 53.913C225.005 51.0188 224.804 44.5615 224.928 41.9582C225.23 35.6085 231.166 37.6891 231.44 32.5926C231.762 26.5841 236.325 26.596 240.83 22.5918C242.239 21.34 243.58 24.6849 246.142 24.7901C249.054 24.9096 250.004 21.1571 252.873 20.6183C254.796 20.2574 256.027 23.3311 257.851 22.5918C262.706 20.6233 265.521 2.20758 270.604 1.05645C273.538 0.392232 274.139 5.83679 277.122 6.174C279.715 6.46722 281.213 23.0536 283.864 22.5918C285.343 22.3341 286.459 19.7112 287.999 19.0749C290.356 18.1013 291.053 19.5344 293.497 19.0749C295.424 18.7125 297.329 15.3571 299.62 14.6004C301.966 13.8257 303.784 15.6612 305.471 16.3175C305.471 16.3175 309.473 20.4183 311.242 20.6183C312.405 20.7498 314.414 17.0059 316.389 16.3175C317.686 15.8657 319.582 20.6183 319.582 20.6183C322.666 21.8179 321.458 25.566 324.167 27.5363C326.258 29.0568 328.965 33.2296 330.656 35.2325C333.398 38.4813 336.185 46.0899 336.185 46.0899V198Z" fill="#38A3FF"/>
<path d="M0.185547 62.269C1.60622 62.0006 4.25307 64.7375 7.22646 64.8087C9.45925 64.8622 11.7283 61.9311 14.6178 63.2845C16.2133 64.0318 17.8321 66.7343 19.9162 67.0425C21.6801 67.3033 23.8672 65.1936 25.729 65.4988C28.1666 65.8984 28.8133 84.3584 30.7348 84.3017C32.0216 84.2637 34.4937 79.4926 35.016 80.0193C38.642 83.6763 41.0056 92.6706 41.1954 93.4075C48.4403 121.526 43.6283 78.0472 53.8552 100.329C54.454 101.633 57.1461 98.3294 57.9001 99.5406C61.959 106.06 59.9633 101.332 66.7339 104.437C71.3867 106.571 71.1628 105.145 75.1687 101.855C75.3571 101.7 79.8864 119.494 85.9291 116.877C88.4018 115.807 91.2183 115.738 93.4706 114.218C100.031 109.79 102.969 129.894 108.999 124.689C110.044 123.787 111.57 127.501 112.619 126.604C113.983 125.436 115.256 121.323 116.541 120.06L121.588 122.502C127.989 116.211 130.647 109.979 134.545 104.437C136.712 101.356 136.242 104.208 141.345 101.855C142.842 101.165 145.387 97.8542 147.302 96.9979C150.026 95.7804 151.283 102.008 153.878 100.508C156.779 98.8315 157.831 95.1219 159.908 93.4075C161.513 92.0822 164.213 92.915 165.83 90.7494C167.818 88.0856 170.082 81.8484 172.706 80.0193C174.696 78.6332 177.448 82.8865 179.135 82.834C181.528 82.7596 182.682 78.9464 184.274 80.5086C187.954 84.1199 188.904 95.0447 194.311 92.3842C197.476 90.827 198.036 85.5972 199.863 83.6763C201.695 81.7491 204.028 86.3908 205.259 84.3017C206.851 81.6003 207.746 73.7693 209.961 70.3487C212.037 67.1415 215.361 68.3206 219.004 66.3849C219.742 65.9928 220.095 61.8891 221.038 58.5908C221.805 55.905 223.502 56.6375 224.245 53.8121C225.005 50.9234 224.804 44.4784 224.928 41.8801C225.23 35.5424 231.166 37.6191 231.44 32.5324C231.762 26.5353 236.325 26.5472 240.83 22.5506C242.239 21.3012 243.58 24.6397 246.142 24.7447C249.054 24.864 250.004 21.1186 252.873 20.5809C254.796 20.2206 256.027 23.2885 257.851 22.5506C262.706 20.5859 265.521 2.20528 270.604 1.05635C273.538 0.393392 274.139 5.82756 277.122 6.16413C279.715 6.45679 281.213 23.0115 283.864 22.5506C285.343 22.2934 286.459 19.6755 287.999 19.0404C290.356 18.0686 291.053 19.4991 293.497 19.0404C295.424 18.6787 297.329 15.3297 299.62 14.5745C301.966 13.8013 303.784 15.6333 305.471 16.2883C305.471 16.2883 309.473 20.3813 311.242 20.5809C312.405 20.7121 314.414 16.9753 316.389 16.2883C317.686 15.8373 319.582 20.5809 319.582 20.5809C322.666 21.7782 321.458 25.5191 324.167 27.4856C326.258 29.0033 328.965 33.1681 330.656 35.1672C333.398 38.4098 334.83 41.7889 336.185 46.0039" stroke="#38A3FF" stroke-width="2"/>
</svg>
