<svg width="24" height="24" viewBox="0 0 24 24" fill="none" xmlns="http://www.w3.org/2000/svg">
<mask id="mask0_10_663" style="mask-type:luminance" maskUnits="userSpaceOnUse" x="3" y="1" width="19" height="18">
<path fill-rule="evenodd" clip-rule="evenodd" d="M3.00023 1.00001H21.4971V18.348H3.00023V1.00001Z" fill="white"/>
</mask>
<g mask="url(#mask0_10_663)">
<path fill-rule="evenodd" clip-rule="evenodd" d="M12.2472 2.50001C8.75224 2.50001 6.31624 5.23802 6.31624 7.69502C6.31624 9.77402 5.73924 10.735 5.22924 11.583C4.82024 12.264 4.49724 12.802 4.49724 13.971C4.66424 15.857 5.90924 16.848 12.2472 16.848C18.5502 16.848 19.8342 15.813 20.0002 13.906C19.9972 12.802 19.6742 12.264 19.2652 11.583C18.7552 10.735 18.1782 9.77402 18.1782 7.69502C18.1782 5.23802 15.7422 2.50001 12.2472 2.50001ZM12.2472 18.348C7.57124 18.348 3.34524 18.018 3.00024 14.035C2.99724 12.387 3.50024 11.549 3.94424 10.811C4.39324 10.063 4.81624 9.35802 4.81624 7.69502C4.81624 4.46201 7.80224 1.00001 12.2472 1.00001C16.6922 1.00001 19.6782 4.46201 19.6782 7.69502C19.6782 9.35802 20.1012 10.063 20.5502 10.811C20.9942 11.549 21.4972 12.387 21.4972 13.971C21.1482 18.018 16.9232 18.348 12.2472 18.348Z" fill="#E3E8F3"/>
</g>
<path fill-rule="evenodd" clip-rule="evenodd" d="M12.1984 22.5H12.1964C11.0754 22.499 10.0144 22.005 9.20937 21.108C8.93237 20.801 8.95737 20.326 9.26537 20.05C9.57337 19.772 10.0474 19.797 10.3244 20.106C10.8424 20.683 11.5074 21 12.1974 21H12.1984C12.8914 21 13.5594 20.683 14.0784 20.105C14.3564 19.798 14.8304 19.773 15.1374 20.05C15.4454 20.327 15.4704 20.802 15.1934 21.109C14.3854 22.006 13.3224 22.5 12.1984 22.5Z" fill="#E3E8F3"/>
</svg>
