<svg width="32" height="32" viewBox="0 0 32 32" fill="none" xmlns="http://www.w3.org/2000/svg">
<rect width="32" height="32" rx="4" fill="#5051F9"/>
<path d="M22.2243 12.8357C22.0582 12.8357 21.9233 12.9706 21.9233 13.1366C21.9233 13.3027 22.0582 13.4376 22.2243 13.4376C22.3904 13.4376 22.5253 13.3027 22.5253 13.1366C22.5253 12.9706 22.3904 12.8357 22.2243 12.8357Z" fill="white"/>
<path d="M22.2248 8C19.4035 8 17.0881 10.3153 17.0881 13.1367C17.0881 15.958 19.4035 18.2734 22.2248 18.2734C25.0462 18.2734 27.3615 15.958 27.3615 13.1367C27.3615 10.3153 25.0462 8 22.2248 8ZM22.2248 16.4474C20.3993 16.4474 18.9141 14.9622 18.9141 13.1367C18.9141 11.3111 20.3993 9.82593 22.2248 9.82593C24.0504 9.82593 25.5356 11.3111 25.5356 13.1367C25.5356 14.9622 24.0504 16.4474 22.2248 16.4474Z" fill="white"/>
<path d="M23.639 11.975L24.1386 11.2225C23.8075 10.8914 23.3922 10.6446 22.9287 10.5242L22.5254 11.3308H21.9234L21.5202 10.5242C21.0566 10.6446 20.6413 10.8914 20.3102 11.2225L20.8099 11.975L20.5089 12.4926L19.606 12.4384C19.5457 12.6612 19.5156 12.8959 19.5156 13.1367C19.5156 13.3775 19.5457 13.6122 19.6059 13.835L20.5089 13.7808L20.8098 14.2984L20.3102 15.0509C20.6413 15.382 21.0566 15.6288 21.5201 15.7492L21.9234 14.9426H22.5254L22.9287 15.7492C23.3922 15.6288 23.8075 15.382 24.1386 15.0509L23.6389 14.2984L23.9399 13.7808L24.8428 13.835C24.9031 13.6122 24.9332 13.3775 24.9332 13.1367C24.9332 12.8959 24.9031 12.6612 24.8429 12.4384L23.94 12.4926L23.639 11.975ZM22.2244 14.0396C21.7266 14.0396 21.3215 13.6346 21.3215 13.1367C21.3215 12.6388 21.7266 12.2338 22.2244 12.2338C22.7223 12.2338 23.1274 12.6388 23.1274 13.1367C23.1274 13.6346 22.7223 14.0396 22.2244 14.0396Z" fill="white"/>
<path d="M11.2374 16.5701C12.9598 16.5701 14.356 14.9749 14.356 13.0071C14.356 11.0393 12.9598 9.44412 11.2374 9.44412C9.51494 9.44412 8.11865 11.0393 8.11865 13.0071C8.11865 14.9749 9.51494 16.5701 11.2374 16.5701Z" fill="white"/>
<path d="M17.4748 21.8396C17.4748 24.0041 14.2995 23.2648 11.2374 23.2648C8.17533 23.2648 5 24.0041 5 21.8396C5 19.675 8.17533 17.9203 11.2374 17.9203C14.2995 17.9203 17.4748 19.675 17.4748 21.8396Z" fill="white"/>
</svg>
