<svg width="338" height="176" viewBox="0 0 338 176" fill="none" xmlns="http://www.w3.org/2000/svg">
<path opacity="0.12" fill-rule="evenodd" clip-rule="evenodd" d="M336.173 176H168.173H0.17334V58.2843C1.59402 58.0509 4.24087 60.4311 7.21426 60.4931C9.44704 60.5396 11.7161 57.9905 14.6056 59.1675C16.2011 59.8174 17.8199 62.1677 19.904 62.4357C21.6679 62.6626 23.855 60.8278 25.7168 61.0932C28.1544 61.4408 28.8011 77.495 30.7226 77.4457C32.0094 77.4127 34.4815 73.2634 35.0038 73.7214C38.6298 76.9018 40.9934 84.724 41.1832 85.3648C48.4281 109.819 43.6162 72.0063 53.843 91.3841C54.4419 92.5187 57.1339 89.6453 57.8879 90.6987C61.9469 96.3686 59.9511 92.2566 66.7218 94.9571C71.3745 96.8129 71.1506 95.5723 75.1565 92.7115C75.3449 92.5769 79.8743 108.052 85.917 105.776C88.3896 104.845 91.2061 104.786 93.4585 103.463C100.019 99.6122 102.957 117.096 108.987 112.57C110.032 111.785 111.558 115.016 112.607 114.235C113.97 113.22 115.243 109.643 116.528 108.544L121.576 110.668C127.977 105.196 130.635 99.7764 134.533 94.9571C136.7 92.2774 136.23 94.7577 141.333 92.7115C142.83 92.1115 145.374 89.232 147.29 88.4874C150.014 87.4286 151.271 92.8443 153.866 91.5401C156.767 90.082 157.819 86.8559 159.896 85.3648C161.501 84.2123 164.201 84.9366 165.817 83.0532C167.806 80.7365 170.069 75.3122 172.694 73.7214C174.683 72.5159 177.436 76.215 179.122 76.1693C181.516 76.1046 182.669 72.7883 184.261 74.1469C187.942 77.2876 188.892 86.7888 194.299 84.4749C197.464 83.1207 198.024 78.5724 199.851 76.9018C201.683 75.2258 204.016 79.2626 205.247 77.4457C206.839 75.0964 207.734 68.2859 209.949 65.3111C212.025 62.5218 215.349 63.5473 218.992 61.8638C219.729 61.5229 220.083 57.954 221.026 55.0855C221.793 52.7497 223.49 53.3867 224.233 50.9295C224.993 48.4173 224.792 42.8122 224.916 40.5525C225.217 35.0408 231.154 36.8468 231.428 32.423C231.75 27.2074 236.313 27.2178 240.818 23.742C242.226 22.6554 243.568 25.5589 246.13 25.6502C249.042 25.754 249.991 22.4967 252.861 22.029C254.784 21.7157 256.015 24.3838 257.839 23.742C262.694 22.0334 265.509 6.04814 270.592 5.04893C273.525 4.47238 274.127 9.19836 277.11 9.49108C279.703 9.74559 281.201 24.1429 283.852 23.742C285.331 23.5184 286.447 21.2416 287.987 20.6893C290.344 19.8442 291.041 21.0882 293.485 20.6893C295.412 20.3747 297.316 17.4622 299.608 16.8054C301.954 16.1329 303.772 17.7262 305.459 18.2958C305.459 18.2958 309.46 21.8554 311.23 22.029C312.393 22.1432 314.401 18.8934 316.377 18.2958C317.674 17.9036 319.57 22.029 319.57 22.029C322.654 23.0703 321.446 26.3237 324.155 28.0339C326.246 29.3538 328.953 32.9759 330.644 34.7145C333.386 37.5345 336.173 44.1389 336.173 44.1389V176Z" fill="#EC4AA7"/>
<path d="M0.17334 58.0081C1.59402 57.7584 4.24087 60.3049 7.21426 60.3712C9.44704 60.4209 11.7161 57.6937 14.6056 58.953C16.2011 59.6483 17.8199 62.1629 19.904 62.4496C21.6679 62.6923 23.855 60.7293 25.7168 61.0133C28.1544 61.3851 28.8011 78.5613 30.7226 78.5086C32.0094 78.4733 34.4815 74.0339 35.0038 74.524C38.6298 77.9266 40.9934 86.2955 41.1832 86.9811C48.4281 113.144 43.6162 72.6891 53.843 93.421C54.4418 94.6349 57.1339 91.5607 57.8879 92.6877C61.9469 98.7539 59.9511 94.3545 66.7218 97.2437C71.3745 99.2292 71.1506 97.9019 75.1565 94.8412C75.3449 94.6972 79.8743 111.254 85.917 108.819C88.3896 107.823 91.2061 107.759 93.4585 106.345C100.019 102.224 102.957 120.93 108.987 116.087C110.032 115.248 111.558 118.704 112.607 117.869C113.97 116.783 115.243 112.956 116.528 111.78L121.576 114.053C127.977 108.199 130.635 102.4 134.533 97.2437C136.7 94.3767 136.23 97.0304 141.333 94.8412C142.83 94.1992 145.374 91.1186 147.29 90.3219C150.014 89.1891 151.271 94.9833 153.866 93.5879C156.767 92.028 157.819 88.5764 159.896 86.9811C161.501 85.748 164.201 86.5229 165.817 84.5079C167.806 82.0293 170.069 76.2259 172.694 74.524C174.683 73.2343 177.436 77.1918 179.122 77.143C181.516 77.0737 182.669 73.5257 184.261 74.9792C187.942 78.3394 188.892 88.5045 194.299 86.029C197.464 84.5801 198.024 79.714 199.851 77.9266C201.683 76.1335 204.016 80.4524 205.247 78.5086C206.839 75.995 207.734 68.7086 209.949 65.5259C212.025 62.5417 215.349 63.6388 218.992 61.8378C219.729 61.4729 220.083 57.6546 221.026 54.5857C221.793 52.0867 223.49 52.7682 224.233 50.1393C224.993 47.4515 224.792 41.4547 224.916 39.0371C225.217 33.1402 231.154 35.0724 231.428 30.3394C231.75 24.7594 236.313 24.7705 240.818 21.0518C242.226 19.8893 243.568 22.9957 246.13 23.0933C249.042 23.2043 249.991 19.7194 252.861 19.2191C254.784 18.8839 256.015 21.7384 257.839 21.0518C262.694 19.2237 265.509 2.12138 270.592 1.05234C273.525 0.435494 274.127 5.49176 277.11 5.80492C279.703 6.07723 281.201 21.4807 283.852 21.0518C285.331 20.8125 286.447 18.3767 287.987 17.7857C290.344 16.8815 291.041 18.2125 293.485 17.7857C295.412 17.4492 297.316 14.3331 299.608 13.6304C301.954 12.911 303.772 14.6155 305.459 15.225C305.459 15.225 309.46 19.0334 311.23 19.2191C312.393 19.3412 314.401 15.8643 316.377 15.225C317.674 14.8054 319.57 19.2191 319.57 19.2191C322.654 20.3331 321.446 23.8139 324.155 25.6437C326.246 27.0558 328.953 30.9309 330.644 32.7911C333.386 35.8081 334.818 38.9522 336.173 42.8741" stroke="#EC4AA7" stroke-width="2"/>
</svg>
