<svg xmlns="http://www.w3.org/2000/svg" width="36" height="44" viewBox="0 0 36 44" fill="none">
  <path d="M8.2 22C9.12119 20.193 10.524 18.6759 12.2535 17.6163C13.983 16.5568 15.9718 15.996 18 15.996C20.0282 15.996 22.017 16.5568 23.7465 17.6163C25.476 18.6759 26.8788 20.193 27.8 22C26.8788 23.807 25.476 25.3241 23.7465 26.3837C22.017 27.4432 20.0282 28.004 18 28.004C15.9718 28.004 13.983 27.4432 12.2535 26.3837C10.524 25.3241 9.12119 23.807 8.2 22ZM18 26C19.0609 26 20.0783 25.5786 20.8284 24.8284C21.5786 24.0783 22 23.0609 22 22C22 20.9391 21.5786 19.9217 20.8284 19.1716C20.0783 18.4214 19.0609 18 18 18C16.9391 18 15.9217 18.4214 15.1716 19.1716C14.4214 19.9217 14 20.9391 14 22C14 23.0609 14.4214 24.0783 15.1716 24.8284C15.9217 25.5786 16.9391 26 18 26ZM18 24C17.4696 24 16.9609 23.7893 16.5858 23.4142C16.2107 23.0391 16 22.5304 16 22C16 21.4696 16.2107 20.9609 16.5858 20.5858C16.9609 20.2107 17.4696 20 18 20C18.5304 20 19.0391 20.2107 19.4142 20.5858C19.7893 20.9609 20 21.4696 20 22C20 22.5304 19.7893 23.0391 19.4142 23.4142C19.0391 23.7893 18.5304 24 18 24Z" fill="black"/>
  <path d="M10.666 11.333L25.333 25.999" stroke="black" stroke-width="2" stroke-linecap="round"/>
</svg>



